<svg width="188" height="88" viewBox="0 0 188 88" fill="none" xmlns="http://www.w3.org/2000/svg">
<circle cx="44.0002" cy="43.9999" r="31" transform="rotate(-125 44.0002 43.9999)" fill="#121212"/>
<path d="M38.6165 57.0001H33.8353L42.5405 32.2728H48.0704L56.7877 57.0001L52.0064 57.0001L45.402 37.3438H45.2089L38.6165 57.0001ZM38.7735 47.3048H51.8133V50.9028L38.7735 50.9028V47.3048ZM67.3765 57.3623C65.5251 57.3623 63.9354 56.9558 62.6073 56.1428C61.2872 55.3299 60.269 54.207 59.5526 52.7742C58.8443 51.3334 58.4901 49.6753 58.4901 47.7998C58.4901 45.9163 58.8523 44.2541 59.5768 42.8133C60.3012 41.3644 61.3234 40.2375 62.6435 39.4326C63.9716 38.6196 65.5412 38.2132 67.3523 38.2132C68.8575 38.2132 70.1897 38.4908 71.3488 39.0462C72.5159 39.5936 73.4456 40.3703 74.1378 41.3765C74.8301 42.3746 75.2245 43.5417 75.3211 44.8779H71.1435C70.9745 43.9845 70.572 43.2399 69.9361 42.6443C69.3083 42.0406 68.4671 41.7387 67.4127 41.7387C66.5192 41.7387 65.7344 41.9802 65.0583 42.4631C64.3821 42.9381 63.8549 43.6222 63.4766 44.5157C63.1063 45.4092 62.9212 46.4797 62.9212 47.7273C62.9212 48.9911 63.1063 50.0777 63.4766 50.9873C63.8469 51.8888 64.366 52.5851 65.0341 53.0761C65.7103 53.559 66.5031 53.8005 67.4127 53.8005C68.0566 53.8005 68.6321 53.6798 69.1392 53.4383C69.6544 53.1888 70.085 52.8306 70.4312 52.3637C70.7773 51.8969 71.0147 51.3294 71.1435 50.6613H75.3211C75.2164 51.9733 74.8301 53.1364 74.162 54.1506C73.4939 55.1568 72.5843 55.9456 71.4333 56.5171C70.2822 57.0806 68.93 57.3623 67.3765 57.3623Z" fill="white"/>
<path d="M78.91 57.0001V38.4546H83.0876V41.6059H83.3049C83.6913 40.5434 84.3312 39.7143 85.2246 39.1187C86.1181 38.515 87.1846 38.2132 88.4242 38.2132C89.6799 38.2132 90.7384 38.519 91.5996 39.1308C92.469 39.7345 93.0807 40.5595 93.4349 41.6059H93.628C94.0386 40.5756 94.7308 39.7546 95.7047 39.1428C96.6868 38.523 97.8499 38.2132 99.1941 38.2132C100.901 38.2132 102.293 38.7524 103.372 39.831C104.45 40.9096 104.99 42.4833 104.99 44.5519V57.0001H100.607V45.2281C100.607 44.077 100.301 43.2359 99.6891 42.7046C99.0774 42.1653 98.3288 41.8957 97.4434 41.8957C96.3889 41.8957 95.5639 42.2257 94.9682 42.8857C94.3806 43.5377 94.0869 44.3869 94.0869 45.4333V57.0001L89.8006 57.0001V45.047C89.8006 44.0891 89.5109 43.3244 88.9313 42.7529C88.3598 42.1814 87.6112 41.8957 86.6856 41.8957C86.0577 41.8957 85.4862 42.0567 84.9711 42.3786C84.4559 42.6926 84.0454 43.1393 83.7396 43.7188C83.4337 44.2903 83.2808 44.9584 83.2808 45.7231V57.0001H78.91ZM117.634 57.3623C115.775 57.3623 114.169 56.9759 112.816 56.2032C111.472 55.4224 110.438 54.3197 109.713 52.895C108.989 51.4622 108.627 49.7759 108.627 47.836C108.627 45.9283 108.989 44.2541 109.713 42.8133C110.446 41.3644 111.468 40.2375 112.78 39.4326C114.092 38.6196 115.634 38.2132 117.404 38.2132C118.547 38.2132 119.626 38.3983 120.64 38.7685C121.663 39.1308 122.564 39.6942 123.345 40.4589C124.134 41.2236 124.753 42.1975 125.204 43.3808C125.655 44.5559 125.88 45.9565 125.88 47.5825V48.9227L110.679 48.9227V45.9766H121.691C121.683 45.1395 121.502 44.395 121.147 43.743C120.793 43.0829 120.298 42.5638 119.662 42.1854C119.034 41.8071 118.302 41.618 117.465 41.618C116.571 41.618 115.787 41.8353 115.11 42.27C114.434 42.6966 113.907 43.26 113.529 43.9603C113.159 44.6525 112.969 45.4132 112.961 46.2423V48.814C112.961 49.8926 113.159 50.8183 113.553 51.591C113.947 52.3557 114.499 52.9433 115.207 53.3538C115.915 53.7562 116.744 53.9575 117.694 53.9575C118.33 53.9575 118.906 53.8689 119.421 53.6918C119.936 53.5067 120.383 53.2371 120.761 52.8829C121.139 52.5287 121.425 52.09 121.618 51.5668L125.699 52.0256C125.442 53.1042 124.951 54.046 124.226 54.8509C123.51 55.6478 122.592 56.2676 121.473 56.7103C120.355 57.145 119.075 57.3623 117.634 57.3623ZM132.27 57.2657C131.538 57.2657 130.91 57.0081 130.387 56.493C129.864 55.9778 129.606 55.35 129.614 54.6094C129.606 53.885 129.864 53.2652 130.387 52.7501C130.91 52.2349 131.538 51.9773 132.27 51.9773C132.979 51.9773 133.595 52.2349 134.118 52.7501C134.649 53.2652 134.919 53.885 134.927 54.6094C134.919 55.1004 134.79 55.5472 134.54 55.9496C134.299 56.3521 133.977 56.6741 133.574 56.9156C133.18 57.149 132.745 57.2657 132.27 57.2657ZM139.439 57.0001V38.4546H143.81V57.0001H139.439ZM141.637 35.8225C140.944 35.8225 140.349 35.5931 139.85 35.1343C139.351 34.6675 139.101 34.108 139.101 33.4561C139.101 32.796 139.351 32.2366 139.85 31.7778C140.349 31.3109 140.944 31.0775 141.637 31.0775C142.337 31.0775 142.933 31.3109 143.424 31.7778C143.923 32.2366 144.172 32.796 144.172 33.4561C144.172 34.108 143.923 34.6675 143.424 35.1343C142.933 35.5931 142.337 35.8225 141.637 35.8225ZM152.675 46.1336V57.0001H148.305V38.4546H152.482V41.6059H152.699C153.126 40.5676 153.806 39.7425 154.74 39.1308C155.682 38.519 156.845 38.2132 158.229 38.2132C159.509 38.2132 160.624 38.4868 161.574 39.0342C162.532 39.5815 163.272 40.3744 163.795 41.4127C164.327 42.4511 164.588 43.7108 164.58 45.1918V57.0001H160.209V45.868C160.209 44.6284 159.887 43.6585 159.243 42.9582C158.608 42.2579 157.726 41.9077 156.599 41.9077C155.835 41.9077 155.154 42.0768 154.559 42.4149C153.971 42.7449 153.508 43.2238 153.17 43.8516C152.84 44.4795 152.675 45.2401 152.675 46.1336ZM177.113 57.3623C175.261 57.3623 173.672 56.9558 172.344 56.1428C171.023 55.3299 170.005 54.207 169.289 52.7742C168.581 51.3334 168.226 49.6753 168.226 47.7998C168.226 45.9163 168.589 44.2541 169.313 42.8133C170.037 41.3644 171.06 40.2375 172.38 39.4326C173.708 38.6196 175.277 38.2132 177.089 38.2132C178.594 38.2132 179.926 38.4908 181.085 39.0462C182.252 39.5936 183.182 40.3703 183.874 41.3765C184.566 42.3746 184.961 43.5417 185.057 44.8779H180.88C180.711 43.9845 180.308 43.2399 179.672 42.6443C179.045 42.0406 178.203 41.7387 177.149 41.7387C176.255 41.7387 175.471 41.9802 174.795 42.4631C174.118 42.9381 173.591 43.6222 173.213 44.5157C172.843 45.4092 172.657 46.4797 172.657 47.7273C172.657 48.9911 172.843 50.0777 173.213 50.9873C173.583 51.8888 174.102 52.5851 174.77 53.0761C175.447 53.559 176.239 53.8005 177.149 53.8005C177.793 53.8005 178.368 53.6798 178.876 53.4383C179.391 53.1888 179.821 52.8306 180.167 52.3637C180.514 51.8969 180.751 51.3294 180.88 50.6613H185.057C184.953 51.9733 184.566 53.1364 183.898 54.1506C183.23 55.1568 182.321 55.9456 181.17 56.5171C180.018 57.0806 178.666 57.3623 177.113 57.3623Z" fill="black"/>
</svg>
